<?xml version="1.0" encoding="UTF-8" standalone="no"?>
<!DOCTYPE svg PUBLIC "-//W3C//DTD SVG 1.1//EN"
 "http://www.w3.org/Graphics/SVG/1.1/DTD/svg11.dtd">
<!-- Generated by graphviz version 2.38.0 (20140413.2041)
 -->
<!-- Title: include/cutils/data_structures Pages: 1 -->
<svg width="124pt" height="151pt"
 viewBox="0.00 0.00 124.00 151.00" xmlns="http://www.w3.org/2000/svg" xmlns:xlink="http://www.w3.org/1999/xlink">
<g id="graph0" class="graph" transform="scale(1 1) rotate(0) translate(4 147)">
<title>include/cutils/data_structures</title>
<polygon fill="white" stroke="none" points="-4,4 -4,-147 120,-147 120,4 -4,4"/>
<g id="clust1" class="cluster"><title>clusterdir_26b811f57d23272ccb7eeef3afef1af2</title>
<g id="a_clust1"><a xlink:href="dir_26b811f57d23272ccb7eeef3afef1af2.html" target="_top" xlink:title="cutils">
<polygon fill="#ddddee" stroke="black" points="8,-64 8,-135 108,-135 108,-64 8,-64"/>
<text text-anchor="middle" x="58" y="-123" font-family="Helvetica,sans-Serif" font-size="10.00">cutils</text>
</a>
</g>
</g>
<!-- dir_5e3600187844b676bca711231be9903d -->
<g id="node1" class="node"><title>dir_5e3600187844b676bca711231be9903d</title>
<g id="a_node1"><a xlink:href="dir_5e3600187844b676bca711231be9903d.html" target="_top" xlink:title="data_structures">
<polygon fill="#eeeeff" stroke="black" points="100,-108 16,-108 16,-72 100,-72 100,-108"/>
<text text-anchor="middle" x="58" y="-87.5" font-family="Helvetica,sans-Serif" font-size="10.00">data_structures</text>
</a>
</g>
</g>
<!-- dir_95cbb42b029bd1a76b0093cfda9a5d07 -->
<g id="node2" class="node"><title>dir_95cbb42b029bd1a76b0093cfda9a5d07</title>
<g id="a_node2"><a xlink:href="dir_95cbb42b029bd1a76b0093cfda9a5d07.html" target="_top" xlink:title="math">
<polygon fill="none" stroke="black" points="85,-36 31,-36 31,-0 85,-0 85,-36"/>
<text text-anchor="middle" x="58" y="-15.5" font-family="Helvetica,sans-Serif" font-size="10.00">math</text>
</a>
</g>
</g>
<!-- dir_5e3600187844b676bca711231be9903d&#45;&gt;dir_95cbb42b029bd1a76b0093cfda9a5d07 -->
<g id="edge1" class="edge"><title>dir_5e3600187844b676bca711231be9903d&#45;&gt;dir_95cbb42b029bd1a76b0093cfda9a5d07</title>
<path fill="none" stroke="black" d="M58,-71.6966C58,-63.9827 58,-54.7125 58,-46.1124"/>
<polygon fill="black" stroke="black" points="61.5001,-46.1043 58,-36.1043 54.5001,-46.1044 61.5001,-46.1043"/>
<g id="a_edge1&#45;headlabel"><a xlink:href="dir_000002_000003.html" target="_top" xlink:title="1">
<text text-anchor="middle" x="64.3393" y="-47.199" font-family="Helvetica,sans-Serif" font-size="10.00">1</text>
</a>
</g>
</g>
</g>
</svg>
