<?xml version="1.0" encoding="UTF-8" standalone="no"?>
<!DOCTYPE svg PUBLIC "-//W3C//DTD SVG 1.1//EN"
 "http://www.w3.org/Graphics/SVG/1.1/DTD/svg11.dtd">
<!-- Generated by graphviz version 2.43.0 (0)
 -->
<!-- Title: include/cutils/data_structures Pages: 1 -->
<svg width="132pt" height="151pt"
 viewBox="0.00 0.00 132.00 151.00" xmlns="http://www.w3.org/2000/svg" xmlns:xlink="http://www.w3.org/1999/xlink">
<g id="graph0" class="graph" transform="scale(1 1) rotate(0) translate(4 147)">
<title>include/cutils/data_structures</title>
<polygon fill="white" stroke="transparent" points="-4,4 -4,-147 128,-147 128,4 -4,4"/>
<g id="clust1" class="cluster">
<title>clusterdir_26b811f57d23272ccb7eeef3afef1af2</title>
<g id="a_clust1"><a xlink:href="dir_26b811f57d23272ccb7eeef3afef1af2.html" target="_top" xlink:title="cutils">
<polygon fill="#ddddee" stroke="black" points="8,-64 8,-135 116,-135 116,-64 8,-64"/>
<text text-anchor="middle" x="62" y="-123" font-family="Helvetica,sans-Serif" font-size="10.00">cutils</text>
</a>
</g>
</g>
<!-- dir_5e3600187844b676bca711231be9903d -->
<g id="node1" class="node">
<title>dir_5e3600187844b676bca711231be9903d</title>
<g id="a_node1"><a xlink:href="dir_5e3600187844b676bca711231be9903d.html" target="_top" xlink:title="data_structures">
<polygon fill="#eeeeff" stroke="black" points="108,-108 16,-108 16,-72 108,-72 108,-108"/>
<text text-anchor="middle" x="62" y="-87.5" font-family="Helvetica,sans-Serif" font-size="10.00">data_structures</text>
</a>
</g>
</g>
<!-- dir_95cbb42b029bd1a76b0093cfda9a5d07 -->
<g id="node2" class="node">
<title>dir_95cbb42b029bd1a76b0093cfda9a5d07</title>
<g id="a_node2"><a xlink:href="dir_95cbb42b029bd1a76b0093cfda9a5d07.html" target="_top" xlink:title="math">
<polygon fill="none" stroke="black" points="89,-36 35,-36 35,0 89,0 89,-36"/>
<text text-anchor="middle" x="62" y="-15.5" font-family="Helvetica,sans-Serif" font-size="10.00">math</text>
</a>
</g>
</g>
<!-- dir_5e3600187844b676bca711231be9903d&#45;&gt;dir_95cbb42b029bd1a76b0093cfda9a5d07 -->
<g id="edge1" class="edge">
<title>dir_5e3600187844b676bca711231be9903d&#45;&gt;dir_95cbb42b029bd1a76b0093cfda9a5d07</title>
<path fill="none" stroke="black" d="M62,-71.7C62,-63.98 62,-54.71 62,-46.11"/>
<polygon fill="black" stroke="black" points="65.5,-46.1 62,-36.1 58.5,-46.1 65.5,-46.1"/>
<g id="a_edge1&#45;headlabel"><a xlink:href="dir_000002_000003.html" target="_top" xlink:title="1">
<text text-anchor="middle" x="68.34" y="-47.2" font-family="Helvetica,sans-Serif" font-size="10.00">1</text>
</a>
</g>
</g>
</g>
</svg>
