<?xml version="1.0" encoding="UTF-8" standalone="no"?>
<!DOCTYPE svg PUBLIC "-//W3C//DTD SVG 1.1//EN"
 "http://www.w3.org/Graphics/SVG/1.1/DTD/svg11.dtd">
<!-- Generated by graphviz version 2.43.0 (0)
 -->
<!-- Title: include/cutils/data_structures/dyn_array_g.h Pages: 1 -->
<svg width="506pt" height="95pt"
 viewBox="0.00 0.00 505.50 95.00" xmlns="http://www.w3.org/2000/svg" xmlns:xlink="http://www.w3.org/1999/xlink">
<g id="graph0" class="graph" transform="scale(1 1) rotate(0) translate(4 91)">
<title>include/cutils/data_structures/dyn_array_g.h</title>
<polygon fill="white" stroke="transparent" points="-4,4 -4,-91 501.5,-91 501.5,4 -4,4"/>
<!-- Node1 -->
<g id="node1" class="node">
<title>Node1</title>
<g id="a_node1"><a xlink:title="Contains a generic version of ctls_DynArray.">
<polygon fill="#bfbfbf" stroke="black" points="138.5,-56.5 138.5,-86.5 281.5,-86.5 281.5,-56.5 138.5,-56.5"/>
<text text-anchor="start" x="146.5" y="-74.5" font-family="Helvetica,sans-Serif" font-size="10.00">include/cutils/data</text>
<text text-anchor="middle" x="210" y="-63.5" font-family="Helvetica,sans-Serif" font-size="10.00">_structures/dyn_array_g.h</text>
</a>
</g>
</g>
<!-- Node2 -->
<g id="node2" class="node">
<title>Node2</title>
<g id="a_node2"><a xlink:title=" ">
<polygon fill="white" stroke="#bfbfbf" points="0,-0.5 0,-19.5 56,-19.5 56,-0.5 0,-0.5"/>
<text text-anchor="middle" x="28" y="-7.5" font-family="Helvetica,sans-Serif" font-size="10.00">stddef.h</text>
</a>
</g>
</g>
<!-- Node1&#45;&gt;Node2 -->
<g id="edge1" class="edge">
<title>Node1&#45;&gt;Node2</title>
<path fill="none" stroke="midnightblue" d="M166.87,-56.4C135.42,-46.12 93.31,-32.35 63.73,-22.68"/>
<polygon fill="midnightblue" stroke="midnightblue" points="64.81,-19.35 54.22,-19.57 62.63,-26.01 64.81,-19.35"/>
</g>
<!-- Node3 -->
<g id="node3" class="node">
<title>Node3</title>
<g id="a_node3"><a xlink:title=" ">
<polygon fill="white" stroke="#bfbfbf" points="74.5,-0.5 74.5,-19.5 127.5,-19.5 127.5,-0.5 74.5,-0.5"/>
<text text-anchor="middle" x="101" y="-7.5" font-family="Helvetica,sans-Serif" font-size="10.00">stdlib.h</text>
</a>
</g>
</g>
<!-- Node1&#45;&gt;Node3 -->
<g id="edge2" class="edge">
<title>Node1&#45;&gt;Node3</title>
<path fill="none" stroke="midnightblue" d="M184.17,-56.4C166.53,-46.77 143.3,-34.09 125.87,-24.58"/>
<polygon fill="midnightblue" stroke="midnightblue" points="127.31,-21.38 116.86,-19.66 123.96,-27.52 127.31,-21.38"/>
</g>
<!-- Node4 -->
<g id="node4" class="node">
<title>Node4</title>
<g id="a_node4"><a xlink:title=" ">
<polygon fill="white" stroke="#bfbfbf" points="145.5,-0.5 145.5,-19.5 198.5,-19.5 198.5,-0.5 145.5,-0.5"/>
<text text-anchor="middle" x="172" y="-7.5" font-family="Helvetica,sans-Serif" font-size="10.00">string.h</text>
</a>
</g>
</g>
<!-- Node1&#45;&gt;Node4 -->
<g id="edge3" class="edge">
<title>Node1&#45;&gt;Node4</title>
<path fill="none" stroke="midnightblue" d="M200.99,-56.4C195.59,-47.93 188.67,-37.1 182.95,-28.14"/>
<polygon fill="midnightblue" stroke="midnightblue" points="185.86,-26.2 177.53,-19.66 179.96,-29.97 185.86,-26.2"/>
</g>
<!-- Node5 -->
<g id="node5" class="node">
<title>Node5</title>
<g id="a_node5"><a xlink:title=" ">
<polygon fill="white" stroke="#bfbfbf" points="217,-0.5 217,-19.5 279,-19.5 279,-0.5 217,-0.5"/>
<text text-anchor="middle" x="248" y="-7.5" font-family="Helvetica,sans-Serif" font-size="10.00">stdbool.h</text>
</a>
</g>
</g>
<!-- Node1&#45;&gt;Node5 -->
<g id="edge4" class="edge">
<title>Node1&#45;&gt;Node5</title>
<path fill="none" stroke="midnightblue" d="M219.01,-56.4C224.41,-47.93 231.33,-37.1 237.05,-28.14"/>
<polygon fill="midnightblue" stroke="midnightblue" points="240.04,-29.97 242.47,-19.66 234.14,-26.2 240.04,-29.97"/>
</g>
<!-- Node6 -->
<g id="node6" class="node">
<title>Node6</title>
<g id="a_node6"><a xlink:title=" ">
<polygon fill="white" stroke="#bfbfbf" points="297.5,-0.5 297.5,-19.5 348.5,-19.5 348.5,-0.5 297.5,-0.5"/>
<text text-anchor="middle" x="323" y="-7.5" font-family="Helvetica,sans-Serif" font-size="10.00">math.h</text>
</a>
</g>
</g>
<!-- Node1&#45;&gt;Node6 -->
<g id="edge5" class="edge">
<title>Node1&#45;&gt;Node6</title>
<path fill="none" stroke="midnightblue" d="M236.78,-56.4C255.06,-46.77 279.15,-34.09 297.21,-24.58"/>
<polygon fill="midnightblue" stroke="midnightblue" points="299.34,-27.41 306.56,-19.66 296.08,-21.22 299.34,-27.41"/>
</g>
<!-- Node7 -->
<g id="node7" class="node">
<title>Node7</title>
<g id="a_node7"><a xlink:href="constants_8h.html" target="_top" xlink:title="Contains mathematical constants, all of which are IEEE&#45;compliant double literals with maximum precisi...">
<polygon fill="white" stroke="black" points="366.5,-0.5 366.5,-19.5 497.5,-19.5 497.5,-0.5 366.5,-0.5"/>
<text text-anchor="middle" x="432" y="-7.5" font-family="Helvetica,sans-Serif" font-size="10.00">cutils/math/constants.h</text>
</a>
</g>
</g>
<!-- Node1&#45;&gt;Node7 -->
<g id="edge6" class="edge">
<title>Node1&#45;&gt;Node7</title>
<path fill="none" stroke="midnightblue" d="M262.33,-56.47C301.47,-45.99 354.26,-31.84 390.5,-22.12"/>
<polygon fill="midnightblue" stroke="midnightblue" points="391.51,-25.48 400.26,-19.51 389.7,-18.71 391.51,-25.48"/>
</g>
</g>
</svg>
