<?xml version="1.0" encoding="UTF-8" standalone="no"?>
<!DOCTYPE svg PUBLIC "-//W3C//DTD SVG 1.1//EN"
 "http://www.w3.org/Graphics/SVG/1.1/DTD/svg11.dtd">
<!-- Generated by graphviz version 2.38.0 (20140413.2041)
 -->
<!-- Title: include/cutils Pages: 1 -->
<svg width="212pt" height="183pt"
 viewBox="0.00 0.00 212.00 183.00" xmlns="http://www.w3.org/2000/svg" xmlns:xlink="http://www.w3.org/1999/xlink">
<g id="graph0" class="graph" transform="scale(1 1) rotate(0) translate(4 179)">
<title>include/cutils</title>
<polygon fill="white" stroke="none" points="-4,4 -4,-179 208,-179 208,4 -4,4"/>
<g id="clust1" class="cluster"><title>clusterdir_d44c64559bbebec7f509842c48db8b23</title>
<g id="a_clust1"><a xlink:href="dir_d44c64559bbebec7f509842c48db8b23.html" target="_top" xlink:title="include">
<polygon fill="#ddddee" stroke="black" points="8,-8 8,-167 196,-167 196,-8 8,-8"/>
<text text-anchor="middle" x="102" y="-155" font-family="Helvetica,sans-Serif" font-size="10.00">include</text>
</a>
</g>
</g>
<g id="clust2" class="cluster"><title>clusterdir_26b811f57d23272ccb7eeef3afef1af2</title>
<g id="a_clust2"><a xlink:href="dir_26b811f57d23272ccb7eeef3afef1af2.html" target="_top">
<polygon fill="#eeeeff" stroke="black" points="16,-16 16,-140 188,-140 188,-16 16,-16"/>
</a>
</g>
</g>
<!-- dir_26b811f57d23272ccb7eeef3afef1af2 -->
<g id="node1" class="node"><title>dir_26b811f57d23272ccb7eeef3afef1af2</title>
<text text-anchor="middle" x="153" y="-111.5" font-family="Helvetica,sans-Serif" font-size="10.00">cutils</text>
</g>
<!-- dir_5e3600187844b676bca711231be9903d -->
<g id="node2" class="node"><title>dir_5e3600187844b676bca711231be9903d</title>
<g id="a_node2"><a xlink:href="dir_5e3600187844b676bca711231be9903d.html" target="_top" xlink:title="data_structures">
<polygon fill="white" stroke="black" points="108,-132 24,-132 24,-96 108,-96 108,-132"/>
<text text-anchor="middle" x="66" y="-111.5" font-family="Helvetica,sans-Serif" font-size="10.00">data_structures</text>
</a>
</g>
</g>
<!-- dir_95cbb42b029bd1a76b0093cfda9a5d07 -->
<g id="node3" class="node"><title>dir_95cbb42b029bd1a76b0093cfda9a5d07</title>
<g id="a_node3"><a xlink:href="dir_95cbb42b029bd1a76b0093cfda9a5d07.html" target="_top" xlink:title="math">
<polygon fill="white" stroke="black" points="93,-60 39,-60 39,-24 93,-24 93,-60"/>
<text text-anchor="middle" x="66" y="-39.5" font-family="Helvetica,sans-Serif" font-size="10.00">math</text>
</a>
</g>
</g>
<!-- dir_5e3600187844b676bca711231be9903d&#45;&gt;dir_95cbb42b029bd1a76b0093cfda9a5d07 -->
<g id="edge1" class="edge"><title>dir_5e3600187844b676bca711231be9903d&#45;&gt;dir_95cbb42b029bd1a76b0093cfda9a5d07</title>
<path fill="none" stroke="black" d="M66,-95.6966C66,-87.9827 66,-78.7125 66,-70.1124"/>
<polygon fill="black" stroke="black" points="69.5001,-70.1043 66,-60.1043 62.5001,-70.1044 69.5001,-70.1043"/>
<g id="a_edge1&#45;headlabel"><a xlink:href="dir_000002_000003.html" target="_top" xlink:title="1">
<text text-anchor="middle" x="72.3393" y="-71.199" font-family="Helvetica,sans-Serif" font-size="10.00">1</text>
</a>
</g>
</g>
</g>
</svg>
